<?xml version="1.0" encoding="UTF-8"?><svg xmlns="http://www.w3.org/2000/svg" xmlns:xlink="http://www.w3.org/1999/xlink" width="1080" zoomAndPan="magnify" viewBox="0 0 1080 203.999996" height="203.999996" preserveAspectRatio="xMidYMid meet" version="1.0"><defs><clipPath id="clip-0"><path d="M 1024 61 L 1059.25 61 L 1059.25 186 L 1024 186 Z M 1024 61 " clip-rule="nonzero"/></clipPath><clipPath id="clip-1"><path d="M 1024 94 L 1059.25 94 L 1059.25 147 L 1024 147 Z M 1024 94 " clip-rule="nonzero"/></clipPath><clipPath id="clip-2"><path d="M 1024 38 L 1059.25 38 L 1059.25 71 L 1024 71 Z M 1024 38 " clip-rule="nonzero"/></clipPath><clipPath id="clip-3"><path d="M 971 29.277344 L 1039 29.277344 L 1039 39 L 971 39 Z M 971 29.277344 " clip-rule="nonzero"/></clipPath><clipPath id="clip-4"><path d="M 861.25 123.304688 L 902.628906 123.304688 L 902.628906 194.277344 L 861.25 194.277344 Z M 861.25 123.304688 " clip-rule="nonzero"/></clipPath><clipPath id="clip-5"><path d="M 861.25 118 L 903 118 L 903 129 L 861.25 129 Z M 861.25 118 " clip-rule="nonzero"/></clipPath><clipPath id="clip-6"><path d="M 861.25 123.304688 L 875.902344 123.304688 L 875.902344 194.277344 L 861.25 194.277344 Z M 861.25 123.304688 " clip-rule="nonzero"/></clipPath><clipPath id="clip-7"><path d="M 861.25 119 L 876 119 L 876 129 L 861.25 129 Z M 861.25 119 " clip-rule="nonzero"/></clipPath><clipPath id="clip-8"><path d="M 20.398438 60 L 96 60 L 96 187 L 20.398438 187 Z M 20.398438 60 " clip-rule="nonzero"/></clipPath><clipPath id="clip-9"><path d="M 20.398438 60 L 96 60 L 96 80 L 20.398438 80 Z M 20.398438 60 " clip-rule="nonzero"/></clipPath><clipPath id="clip-10"><path d="M 50 12.839844 L 107 12.839844 L 107 173 L 50 173 Z M 50 12.839844 " clip-rule="nonzero"/></clipPath><clipPath id="clip-11"><path d="M 165 96 L 207.898438 96 L 207.898438 123 L 165 123 Z M 165 96 " clip-rule="nonzero"/></clipPath><clipPath id="clip-12"><path d="M 165 103 L 207.898438 103 L 207.898438 123 L 165 123 Z M 165 103 " clip-rule="nonzero"/></clipPath></defs><rect x="-108" width="1296" fill="rgb(100%, 100%, 100%)" y="-20.4" height="244.799995" fill-opacity="1"/><rect x="-108" width="1296" fill="rgb(73.329163%, 66.668701%, 79.998779%)" y="-20.4" height="244.799995" fill-opacity="1"/><path fill="rgb(100%, 100%, 100%)" d="M 957.890625 70.65625 L 1024.683594 70.65625 L 1024.683594 185.890625 L 957.890625 185.890625 L 957.890625 70.65625 " fill-opacity="1" fill-rule="evenodd"/><path fill="rgb(34.118652%, 74.899292%, 79.219055%)" d="M 957.890625 106.898438 L 1024.683594 106.898438 L 1024.683594 146.480469 L 957.890625 146.480469 L 957.890625 106.898438 " fill-opacity="1" fill-rule="evenodd"/><g clip-path="url(#clip-0)"><path fill="rgb(96.078491%, 96.859741%, 98.81897%)" d="M 1059.25 61.667969 L 1024.683594 70.65625 L 1024.683594 185.890625 L 1059.25 176.898438 L 1059.25 61.667969 " fill-opacity="1" fill-rule="evenodd"/></g><g clip-path="url(#clip-1)"><path fill="rgb(30.198669%, 66.268921%, 70.979309%)" d="M 1024.683594 106.898438 L 1024.683594 146.480469 L 1059.25 134.410156 L 1059.25 94.855469 L 1024.683594 106.898438 " fill-opacity="1" fill-rule="evenodd"/></g><path fill="rgb(96.078491%, 96.859741%, 98.81897%)" d="M 957.890625 70.65625 L 1024.683594 70.65625 L 1038.214844 38.207031 L 971.417969 38.207031 L 957.890625 70.65625 " fill-opacity="1" fill-rule="evenodd"/><g clip-path="url(#clip-2)"><path fill="rgb(87.059021%, 89.408875%, 94.119263%)" d="M 1059.25 61.722656 L 1024.683594 70.65625 L 1038.183594 38.238281 Z M 1059.25 61.722656 " fill-opacity="1" fill-rule="evenodd"/></g><g clip-path="url(#clip-3)"><path fill="rgb(100%, 100%, 100%)" d="M 971.449219 29.277344 L 1038.097656 29.277344 L 1038.097656 38.207031 L 971.449219 38.207031 L 971.449219 29.277344 " fill-opacity="1" fill-rule="evenodd"/></g><path fill="rgb(100%, 100%, 100%)" d="M 1010.246094 137.71875 L 1013.796875 137.71875 L 1008.996094 125.476562 L 1013.796875 115.660156 L 1010.359375 115.660156 L 1005.839844 125.277344 L 1005.839844 115.660156 L 1002.371094 115.660156 L 1002.371094 137.71875 L 1005.839844 137.71875 L 1005.839844 130.925781 L 1006.890625 128.929688 Z M 991.742188 137.71875 L 1000.867188 137.71875 L 1000.867188 134.550781 L 995.210938 134.550781 L 995.210938 115.660156 L 991.742188 115.660156 Z M 985.773438 137.71875 L 989.238281 137.71875 L 989.238281 115.660156 L 985.773438 115.660156 Z M 973.578125 115.660156 L 968.777344 115.660156 L 968.777344 137.71875 L 971.789062 137.71875 L 971.789062 122.109375 L 974.375 137.71875 L 977.644531 137.71875 L 980.003906 121.910156 L 980.003906 137.71875 L 983.269531 137.71875 L 983.269531 115.660156 L 978.46875 115.660156 L 976.136719 131.328125 L 973.578125 115.660156 " fill-opacity="1" fill-rule="evenodd"/><path fill="rgb(100%, 100%, 100%)" d="M 946.007812 179.925781 L 898.085938 179.925781 C 896.664062 179.925781 895.355469 179.355469 894.417969 178.414062 C 893.507812 177.472656 892.914062 176.1875 892.914062 174.761719 L 892.914062 76.363281 L 893.621094 76.363281 C 892.375 75.707031 891.691406 74.992188 891.691406 74.253906 C 891.691406 74.136719 891.71875 74.023438 891.75 73.9375 L 890.496094 73.9375 L 890.496094 174.761719 C 890.496094 176.84375 891.351562 178.753906 892.714844 180.125 C 894.078125 181.523438 895.984375 182.378906 898.085938 182.378906 L 946.007812 182.378906 C 948.082031 182.378906 949.988281 181.523438 951.351562 180.125 C 952.746094 178.753906 953.597656 176.84375 953.597656 174.761719 L 953.597656 73.9375 L 952.347656 73.9375 C 952.375 74.023438 952.375 74.136719 952.375 74.253906 C 952.375 74.992188 951.691406 75.707031 950.472656 76.363281 L 951.152344 76.363281 L 951.152344 174.761719 C 951.152344 176.1875 950.585938 177.472656 949.644531 178.414062 C 948.707031 179.355469 947.429688 179.925781 946.007812 179.925781 " fill-opacity="1" fill-rule="nonzero"/><path fill="rgb(100%, 100%, 100%)" d="M 900.8125 71.113281 C 906.242188 70.027344 913.746094 69.371094 922.046875 69.371094 C 930.347656 69.371094 937.851562 70.027344 943.25 71.113281 C 948.140625 72.113281 951.152344 73.222656 951.152344 74.253906 C 951.152344 75.25 948.140625 76.363281 943.25 77.363281 C 937.851562 78.445312 930.347656 79.101562 922.046875 79.101562 C 913.746094 79.101562 906.242188 78.445312 900.8125 77.363281 C 895.925781 76.363281 892.914062 75.25 892.914062 74.253906 C 892.914062 73.222656 895.925781 72.113281 900.8125 71.113281 Z M 922.046875 66.917969 C 913.578125 66.917969 905.902344 67.632812 900.359375 68.746094 C 894.25 69.972656 890.496094 71.882812 890.496094 74.253906 C 890.496094 76.589844 894.25 78.53125 900.359375 79.730469 C 905.902344 80.871094 913.578125 81.558594 922.046875 81.558594 C 930.488281 81.558594 938.164062 80.871094 943.734375 79.730469 C 949.816406 78.53125 953.597656 76.589844 953.597656 74.253906 C 953.597656 71.882812 949.816406 69.972656 943.734375 68.746094 C 938.164062 67.632812 930.488281 66.917969 922.046875 66.917969 " fill-opacity="1" fill-rule="nonzero"/><path fill="rgb(100%, 100%, 100%)" d="M 946.007812 181.152344 L 898.085938 181.152344 C 894.5625 181.152344 891.691406 178.269531 891.691406 174.761719 L 891.691406 99.535156 C 890.78125 107.953125 907.152344 123.394531 924.578125 107.613281 C 935.347656 97.878906 950.726562 109.523438 952.375 99.535156 L 952.375 174.761719 C 952.375 178.269531 949.503906 181.152344 946.007812 181.152344 " fill-opacity="1" fill-rule="evenodd"/><path fill="rgb(97.24884%, 97.24884%, 97.24884%)" d="M 912.867188 179.925781 L 898.085938 179.925781 C 896.664062 179.925781 895.355469 179.355469 894.417969 178.414062 C 893.507812 177.472656 892.914062 176.1875 892.914062 174.761719 L 892.914062 76.363281 L 893.621094 76.363281 C 892.375 75.707031 891.691406 74.992188 891.691406 74.253906 C 891.691406 74.136719 891.71875 74.023438 891.75 73.9375 L 890.496094 73.9375 L 890.496094 174.761719 C 890.496094 176.84375 891.351562 178.753906 892.714844 180.125 C 894.078125 181.523438 895.984375 182.378906 898.085938 182.378906 L 912.867188 182.378906 L 912.867188 179.925781 " fill-opacity="1" fill-rule="nonzero"/><path fill="rgb(97.24884%, 97.24884%, 97.24884%)" d="M 912.867188 67.203125 C 908.089844 67.515625 903.828125 68.03125 900.359375 68.746094 C 894.25 69.972656 890.496094 71.882812 890.496094 74.253906 C 890.496094 76.589844 894.25 78.53125 900.359375 79.730469 C 903.828125 80.445312 908.089844 80.957031 912.867188 81.273438 L 912.867188 78.816406 C 908.261719 78.53125 904.140625 78.019531 900.8125 77.363281 C 895.925781 76.363281 892.914062 75.25 892.914062 74.253906 C 892.914062 73.222656 895.925781 72.113281 900.8125 71.113281 C 904.140625 70.457031 908.261719 69.941406 912.867188 69.65625 L 912.867188 67.203125 " fill-opacity="1" fill-rule="nonzero"/><path fill="rgb(97.24884%, 97.24884%, 97.24884%)" d="M 912.867188 181.152344 L 898.085938 181.152344 C 894.5625 181.152344 891.691406 178.269531 891.691406 174.761719 L 891.691406 99.535156 C 890.980469 106.015625 900.5 116.628906 912.867188 114.003906 L 912.867188 181.152344 " fill-opacity="1" fill-rule="evenodd"/><g clip-path="url(#clip-4)"><path fill="rgb(100%, 100%, 100%)" d="M 897.519531 192.683594 L 866.222656 192.683594 C 865.285156 192.683594 864.433594 192.28125 863.835938 191.683594 C 863.210938 191.054688 862.839844 190.226562 862.839844 189.285156 L 862.839844 125.019531 L 863.296875 125.019531 C 862.5 124.589844 862.046875 124.105469 862.046875 123.621094 C 862.046875 123.5625 862.046875 123.507812 862.074219 123.421875 L 861.25 123.421875 L 861.25 189.285156 C 861.25 190.65625 861.816406 191.910156 862.726562 192.796875 C 863.609375 193.710938 864.859375 194.28125 866.222656 194.28125 L 897.519531 194.28125 C 898.882812 194.28125 900.132812 193.710938 901.011719 192.796875 C 901.921875 191.910156 902.492188 190.65625 902.492188 189.285156 L 902.492188 123.421875 L 901.667969 123.421875 C 901.667969 123.507812 901.695312 123.5625 901.695312 123.621094 C 901.695312 124.105469 901.238281 124.589844 900.445312 125.019531 L 900.898438 125.019531 L 900.898438 189.285156 C 900.898438 190.226562 900.5 191.054688 899.90625 191.683594 C 899.28125 192.28125 898.457031 192.683594 897.519531 192.683594 " fill-opacity="1" fill-rule="nonzero"/></g><g clip-path="url(#clip-5)"><path fill="rgb(100%, 100%, 100%)" d="M 868.015625 121.59375 C 871.539062 120.882812 876.457031 120.453125 881.855469 120.453125 C 887.285156 120.453125 892.203125 120.882812 895.726562 121.59375 C 898.910156 122.222656 900.898438 122.964844 900.898438 123.621094 C 900.898438 124.277344 898.910156 125.019531 895.726562 125.648438 C 892.203125 126.359375 887.285156 126.816406 881.855469 126.816406 C 876.457031 126.816406 871.539062 126.359375 868.015625 125.648438 C 864.832031 125.019531 862.839844 124.277344 862.839844 123.621094 C 862.839844 122.964844 864.832031 122.222656 868.015625 121.59375 Z M 881.855469 118.855469 C 876.339844 118.855469 871.339844 119.3125 867.699219 120.027344 C 863.722656 120.824219 861.25 122.082031 861.25 123.621094 C 861.25 125.164062 863.722656 126.417969 867.699219 127.21875 C 871.339844 127.957031 876.339844 128.414062 881.855469 128.414062 C 887.398438 128.414062 892.402344 127.957031 896.039062 127.21875 C 900.019531 126.417969 902.492188 125.164062 902.492188 123.621094 C 902.492188 122.082031 900.019531 120.824219 896.039062 120.027344 C 892.402344 119.3125 887.398438 118.855469 881.855469 118.855469 " fill-opacity="1" fill-rule="nonzero"/></g><path fill="rgb(100%, 100%, 100%)" d="M 897.519531 193.480469 L 866.222656 193.480469 C 863.921875 193.480469 862.046875 191.597656 862.046875 189.285156 L 862.046875 140.144531 C 861.449219 145.652344 872.136719 155.726562 883.53125 145.425781 C 890.554688 139.058594 900.613281 146.679688 901.695312 140.144531 L 901.695312 189.285156 C 901.695312 191.597656 899.820312 193.480469 897.519531 193.480469 " fill-opacity="1" fill-rule="evenodd"/><g clip-path="url(#clip-6)"><path fill="rgb(97.24884%, 97.24884%, 97.24884%)" d="M 875.886719 192.683594 L 866.222656 192.683594 C 865.285156 192.683594 864.433594 192.28125 863.835938 191.683594 C 863.210938 191.054688 862.839844 190.226562 862.839844 189.285156 L 862.839844 125.019531 L 863.296875 125.019531 C 862.5 124.589844 862.046875 124.105469 862.046875 123.621094 C 862.046875 123.5625 862.046875 123.507812 862.074219 123.421875 L 861.25 123.421875 L 861.25 189.285156 C 861.25 190.65625 861.816406 191.910156 862.726562 192.796875 C 863.609375 193.710938 864.859375 194.28125 866.222656 194.28125 L 875.886719 194.28125 L 875.886719 192.683594 " fill-opacity="1" fill-rule="nonzero"/></g><g clip-path="url(#clip-7)"><path fill="rgb(97.24884%, 97.24884%, 97.24884%)" d="M 875.886719 119.027344 C 872.761719 119.226562 869.976562 119.570312 867.699219 120.027344 C 863.722656 120.824219 861.25 122.082031 861.25 123.621094 C 861.25 125.164062 863.722656 126.417969 867.699219 127.21875 C 869.976562 127.671875 872.761719 128.015625 875.886719 128.214844 L 875.886719 126.617188 C 872.875 126.417969 870.175781 126.105469 868.015625 125.648438 C 864.832031 125.019531 862.839844 124.277344 862.839844 123.621094 C 862.839844 122.964844 864.832031 122.222656 868.015625 121.59375 C 870.175781 121.167969 872.875 120.824219 875.886719 120.625 L 875.886719 119.027344 " fill-opacity="1" fill-rule="nonzero"/></g><path fill="rgb(97.24884%, 97.24884%, 97.24884%)" d="M 875.886719 193.480469 L 866.222656 193.480469 C 863.921875 193.480469 862.046875 191.597656 862.046875 189.285156 L 862.046875 140.144531 C 861.589844 144.394531 867.785156 151.304688 875.886719 149.621094 L 875.886719 193.480469 " fill-opacity="1" fill-rule="evenodd"/><path fill="rgb(85.099792%, 85.099792%, 94.509888%)" d="M 85.039062 184.398438 C 84.828125 185.613281 83.78125 186.53125 82.5 186.53125 L 33.886719 186.53125 C 32.609375 186.53125 31.558594 185.613281 31.351562 184.398438 C 31.339844 184.71875 31.316406 185.023438 31.304688 185.339844 C 31.230469 186.816406 32.410156 188.050781 33.886719 188.050781 L 82.5 188.050781 C 83.929688 188.050781 85.078125 186.890625 85.078125 185.46875 L 85.078125 185.339844 C 85.070312 185.019531 85.050781 184.71875 85.039062 184.398438 Z M 85.039062 184.398438 " fill-opacity="1" fill-rule="nonzero"/><g clip-path="url(#clip-8)"><path fill="rgb(95.289612%, 95.289612%, 100%)" d="M 95.511719 62.121094 C 95.214844 61.335938 94.472656 60.757812 93.566406 60.757812 L 22.824219 60.757812 C 21.914062 60.757812 21.171875 61.335938 20.878906 62.121094 C 20.746094 62.480469 20.714844 62.878906 20.804688 63.28125 L 21.15625 64.859375 C 22.222656 69.648438 23.210938 74.453125 24.117188 79.265625 C 28.9375 104.710938 31.519531 130.53125 31.871094 156.414062 C 31.894531 157.867188 31.90625 159.332031 31.90625 160.789062 L 31.90625 162.308594 C 31.90625 169.65625 31.71875 177.035156 31.359375 184.394531 C 31.566406 185.609375 32.617188 186.527344 33.894531 186.527344 L 82.503906 186.527344 C 83.785156 186.527344 84.835938 185.609375 85.042969 184.394531 C 84.671875 177.035156 84.496094 169.679688 84.496094 162.320312 L 84.496094 161.652344 C 84.550781 129.257812 88.105469 96.941406 95.15625 65.273438 C 95.179688 65.132812 95.210938 65 95.242188 64.859375 L 95.59375 63.28125 C 95.675781 62.878906 95.640625 62.484375 95.511719 62.121094 Z M 95.511719 62.121094 " fill-opacity="1" fill-rule="nonzero"/></g><path fill="rgb(72.158813%, 80.778503%, 40.388489%)" d="M 88.003906 78.109375 L 28.390625 78.109375 C 27.066406 78.109375 26.097656 79.304688 26.335938 80.59375 C 31.441406 107.101562 34 134.035156 34 161.023438 C 34 168.210938 33.8125 175.398438 33.453125 182.585938 C 33.386719 183.964844 34.460938 185.125 35.824219 185.125 L 80.523438 185.125 C 81.859375 185.125 82.941406 184.042969 82.941406 182.707031 L 82.941406 182.585938 C 81.210938 148.410156 83.59375 114.15625 90.058594 80.59375 C 90.300781 79.304688 89.316406 78.109375 88.003906 78.109375 Z M 88.003906 78.109375 " fill-opacity="1" fill-rule="nonzero"/><path fill="rgb(86.268616%, 92.939758%, 68.238831%)" d="M 84.34375 78.109375 L 28.390625 78.109375 C 27.066406 78.109375 26.097656 79.304688 26.335938 80.59375 C 31.441406 107.101562 34 134.035156 34 161.023438 C 34 168.210938 33.8125 175.398438 33.453125 182.585938 C 33.386719 183.964844 34.460938 185.125 35.824219 185.125 L 76.851562 185.125 C 78.183594 185.125 79.265625 184.042969 79.265625 182.707031 L 79.265625 182.585938 C 77.539062 148.410156 79.921875 114.15625 86.382812 80.59375 C 86.640625 79.304688 85.65625 78.109375 84.34375 78.109375 Z M 84.34375 78.109375 " fill-opacity="1" fill-rule="nonzero"/><path fill="rgb(77.249146%, 88.238525%, 47.059631%)" d="M 84.535156 78.109375 L 31.867188 78.109375 C 30.542969 78.109375 29.570312 79.304688 29.808594 80.59375 C 34.914062 107.101562 37.472656 134.035156 37.472656 161.023438 C 37.472656 168.210938 37.289062 175.398438 36.929688 182.585938 C 36.859375 183.964844 37.933594 185.125 39.300781 185.125 L 77.042969 185.125 C 78.378906 185.125 79.460938 184.042969 79.460938 182.707031 L 79.460938 182.585938 C 77.734375 148.410156 80.117188 114.15625 86.578125 80.59375 C 86.832031 79.304688 85.851562 78.109375 84.535156 78.109375 Z M 84.535156 78.109375 " fill-opacity="1" fill-rule="nonzero"/><g clip-path="url(#clip-9)"><path fill="rgb(98.429871%, 98.429871%, 98.429871%)" d="M 93.570312 60.761719 L 22.828125 60.761719 C 21.503906 60.761719 20.519531 61.996094 20.804688 63.285156 L 21.15625 64.863281 C 22.222656 69.652344 23.210938 74.457031 24.117188 79.269531 C 24.128906 79.28125 24.128906 79.28125 24.128906 79.28125 L 24.128906 65.277344 L 95.15625 65.277344 C 95.179688 65.136719 95.210938 65.003906 95.242188 64.863281 L 95.59375 63.285156 C 95.878906 61.996094 94.894531 60.761719 93.570312 60.761719 Z M 93.570312 60.761719 " fill-opacity="1" fill-rule="nonzero"/></g><path fill="rgb(94.898987%, 59.21936%, 16.468811%)" d="M 106.113281 18.03125 L 71.53125 30.402344 C 70.964844 30.605469 70.570312 31.109375 70.511719 31.707031 L 67.679688 59.582031 L 56.273438 172.03125 C 56.207031 172.609375 55.707031 173.027344 55.125 172.957031 L 50.554688 172.496094 C 50.5 173.089844 50.914062 173.578125 51.480469 173.648438 L 56.414062 174.128906 C 56.992188 174.195312 57.492188 173.789062 57.5625 173.210938 L 68.964844 60.761719 L 71.824219 32.628906 C 71.867188 32.191406 72.160156 31.820312 72.570312 31.671875 L 106.621094 19.472656 Z M 106.113281 18.03125 " fill-opacity="1" fill-rule="nonzero"/><g clip-path="url(#clip-10)"><path fill="rgb(97.648621%, 63.529968%, 18.429565%)" d="M 104.253906 12.847656 L 66.144531 26.488281 C 66.058594 26.507812 65.980469 26.53125 65.90625 26.5625 C 65.585938 26.703125 65.359375 27 65.28125 27.347656 C 65.269531 27.414062 65.257812 27.492188 65.257812 27.566406 L 64.546875 34.542969 L 61.890625 60.757812 L 50.554688 172.492188 L 50.554688 172.5 L 55.125 172.960938 C 55.707031 173.03125 56.207031 172.609375 56.273438 172.035156 L 67.679688 59.585938 L 70.5 31.800781 C 70.566406 31.148438 71 30.59375 71.617188 30.371094 L 106.109375 18.03125 Z M 104.253906 12.847656 " fill-opacity="1" fill-rule="nonzero"/></g><path fill="rgb(94.898987%, 61.959839%, 26.669312%)" d="M 61.890625 60.761719 L 50.554688 172.492188 C 50.554688 172.5 50.554688 172.5 50.554688 172.511719 C 50.511719 173.09375 50.925781 173.582031 51.480469 173.652344 L 56.414062 174.132812 C 56.992188 174.199219 57.492188 173.792969 57.5625 173.210938 L 68.964844 60.765625 L 61.890625 60.765625 Z M 61.890625 60.761719 " fill-opacity="1" fill-rule="nonzero"/><path fill="rgb(98.039246%, 70.979309%, 34.899902%)" d="M 61.890625 60.761719 L 50.554688 172.492188 C 50.554688 172.5 50.554688 172.5 50.554688 172.511719 L 53.472656 172.808594 L 64.546875 60.765625 L 61.890625 60.765625 Z M 61.890625 60.761719 " fill-opacity="1" fill-rule="nonzero"/><path fill="rgb(98.039246%, 70.979309%, 34.899902%)" d="M 65.65625 60.761719 L 54.566406 172.917969 L 55.269531 172.984375 C 55.847656 173.050781 56.347656 172.632812 56.414062 172.054688 L 67.558594 60.765625 L 65.65625 60.765625 Z M 65.65625 60.761719 " fill-opacity="1" fill-rule="nonzero"/><path fill="rgb(98.429871%, 98.429871%, 98.429871%)" d="M 61.886719 60.761719 L 61.429688 65.277344 L 68.507812 65.277344 L 68.96875 60.757812 Z M 61.886719 60.761719 " fill-opacity="0.4" fill-rule="nonzero"/><path fill="rgb(90.979004%, 90.979004%, 97.648621%)" d="M 64.546875 60.761719 L 53.472656 172.808594 L 54.566406 172.917969 L 65.65625 60.761719 Z M 64.546875 60.761719 " fill-opacity="1" fill-rule="nonzero"/><path fill="rgb(90.979004%, 90.979004%, 97.648621%)" d="M 53.472656 172.808594 L 53.375 173.832031 L 54.46875 173.945312 L 54.566406 172.917969 Z M 53.472656 172.808594 " fill-opacity="1" fill-rule="nonzero"/><path fill="rgb(95.289612%, 95.289612%, 100%)" d="M 105.105469 15.242188 L 69.296875 28.324219 C 68.335938 28.675781 67.648438 29.570312 67.535156 30.601562 L 64.550781 60.761719 L 65.65625 60.761719 L 68.628906 30.703125 C 68.683594 30.097656 69.101562 29.5625 69.679688 29.355469 L 105.488281 16.269531 Z M 105.105469 15.242188 " fill-opacity="1" fill-rule="nonzero"/><path fill="rgb(22.349548%, 70.979309%, 29.019165%)" d="M 133.007812 71.089844 C 118.707031 69.664062 99.621094 70.386719 104.273438 85.382812 C 104.382812 85.726562 104.492188 86.066406 104.621094 86.410156 C 104.765625 86.753906 104.886719 87.0625 104.996094 87.367188 C 111.183594 101.96875 126.914062 92.113281 137.445312 83.148438 C 143.074219 78.328125 147.242188 73.78125 147.601562 73.402344 C 147.621094 73.382812 147.621094 73.363281 147.621094 73.363281 C 147.621094 73.363281 141.054688 71.882812 133.007812 71.089844 Z M 133.007812 71.089844 " fill-opacity="1" fill-rule="nonzero"/><path fill="rgb(19.60907%, 64.709473%, 23.919678%)" d="M 123.640625 77.203125 C 116.777344 78.71875 109.921875 80.785156 103.660156 84.382812 L 104.894531 86.378906 C 110.617188 82.644531 117.226562 80.210938 123.921875 78.34375 C 130.640625 76.476562 137.542969 75.222656 144.476562 74.230469 C 137.496094 74.835938 130.523438 75.703125 123.640625 77.203125 Z M 123.640625 77.203125 " fill-opacity="1" fill-rule="nonzero"/><path fill="rgb(19.60907%, 64.709473%, 23.919678%)" d="M 104.273438 85.382812 C 104.382812 85.726562 104.492188 86.066406 104.621094 86.410156 C 104.765625 86.753906 104.886719 87.0625 104.996094 87.367188 C 111.183594 101.96875 126.914062 92.113281 137.445312 83.148438 C 143.074219 78.328125 147.242188 73.78125 147.601562 73.402344 C 147.621094 73.382812 147.621094 73.363281 147.621094 73.363281 C 129.984375 88.105469 111.429688 94.8125 104.273438 85.382812 Z M 104.273438 85.382812 " fill-opacity="1" fill-rule="nonzero"/><path fill="rgb(45.878601%, 29.798889%, 14.118958%)" d="M 103.699219 82.894531 C 103.375 82.765625 103.015625 82.695312 102.636719 82.695312 L 100.65625 82.695312 C 98.992188 82.695312 97.660156 84.050781 97.660156 85.707031 L 97.660156 102.8125 C 97.660156 103.644531 98.328125 104.3125 99.160156 104.3125 L 104.136719 104.3125 C 104.96875 104.3125 105.632812 103.644531 105.632812 102.8125 L 105.632812 85.707031 C 105.628906 84.421875 104.835938 83.324219 103.699219 82.894531 Z M 103.699219 82.894531 " fill-opacity="1" fill-rule="nonzero"/><path fill="rgb(39.99939%, 24.708557%, 12.159729%)" d="M 103.699219 82.894531 C 104.863281 90.8125 103.492188 96.441406 97.660156 100.214844 C 97.660156 100.214844 98.757812 102.851562 100.941406 104.316406 L 104.136719 104.316406 C 104.96875 104.316406 105.632812 103.648438 105.632812 102.816406 L 105.632812 85.710938 C 105.628906 84.421875 104.835938 83.324219 103.699219 82.894531 Z M 103.699219 82.894531 " fill-opacity="1" fill-rule="nonzero"/><path fill="rgb(25.878906%, 47.839355%, 7.839966%)" d="M 130.511719 137.757812 C 130.503906 137.75 130.503906 137.738281 130.503906 137.738281 C 130.097656 137.03125 129.671875 136.34375 129.222656 135.671875 C 129.003906 135.335938 128.78125 135.003906 128.582031 134.664062 L 128.574219 134.660156 C 127.3125 132.609375 126.324219 130.433594 125.617188 128.164062 C 124.804688 125.5 124.375 122.730469 124.375 119.925781 C 124.375 114.515625 122.453125 109.546875 119.246094 105.683594 C 115.742188 101.449219 110.699219 98.535156 104.96875 97.796875 C 104.710938 97.75 104.453125 97.722656 104.183594 97.699219 C 104.101562 97.691406 104.03125 97.691406 103.941406 97.691406 C 103.300781 97.691406 102.683594 97.808594 102.117188 98.027344 C 101.863281 98.125 101.589844 98.175781 101.3125 98.175781 C 101.035156 98.175781 100.765625 98.125 100.5 98.027344 C 99.9375 97.808594 99.328125 97.691406 98.683594 97.691406 C 98.59375 97.691406 98.527344 97.691406 98.445312 97.699219 C 98.445312 97.699219 98.445312 97.699219 98.4375 97.699219 C 98.171875 97.722656 97.917969 97.75 97.660156 97.796875 C 86.710938 99.207031 78.253906 108.570312 78.253906 119.925781 L 78.253906 121.574219 C 78.253906 125.675781 77.089844 129.648438 75.042969 133.167969 C 74.664062 133.820312 74.257812 134.457031 73.816406 135.074219 C 69.722656 140.898438 67.425781 148.070312 67.730469 155.792969 C 67.886719 159.742188 68.738281 163.53125 70.164062 167.023438 C 70.171875 167.023438 70.171875 167.023438 70.171875 167.023438 C 72.265625 172.15625 75.605469 176.675781 79.804688 180.195312 C 85.34375 184.835938 92.390625 187.734375 100.042969 188.023438 C 100.46875 188.039062 100.890625 188.046875 101.316406 188.046875 C 119.878906 188.046875 134.925781 172.984375 134.925781 154.421875 C 134.921875 148.363281 133.3125 142.671875 130.511719 137.757812 Z M 130.511719 137.757812 " fill-opacity="1" fill-rule="nonzero"/><path fill="rgb(21.958923%, 40.779114%, 6.669617%)" d="M 130.511719 137.757812 C 130.503906 137.75 130.503906 137.738281 130.503906 137.738281 C 143.238281 174.753906 102.796875 198.082031 79.800781 180.199219 C 85.339844 184.839844 92.386719 187.738281 100.039062 188.023438 C 100.464844 188.042969 100.886719 188.050781 101.3125 188.050781 C 119.875 188.050781 134.921875 172.988281 134.921875 154.425781 C 134.921875 148.363281 133.3125 142.671875 130.511719 137.757812 Z M 130.511719 137.757812 " fill-opacity="1" fill-rule="nonzero"/><path fill="rgb(21.958923%, 40.779114%, 6.669617%)" d="M 125.613281 128.164062 C 124.804688 125.5 124.371094 122.730469 124.371094 119.925781 C 124.371094 114.515625 122.449219 109.546875 119.242188 105.683594 C 126.039062 115.90625 119.242188 124.914062 128.574219 134.660156 C 127.308594 132.609375 126.320312 130.433594 125.613281 128.164062 Z M 125.613281 128.164062 " fill-opacity="1" fill-rule="nonzero"/><path fill="rgb(55.688477%, 68.629456%, 44.709778%)" d="M 75.035156 133.167969 C 74.660156 133.820312 74.25 134.457031 73.808594 135.074219 C 69.71875 140.898438 67.417969 148.070312 67.722656 155.792969 C 67.878906 159.742188 68.730469 163.53125 70.160156 167.023438 C 70.164062 167.023438 70.164062 167.023438 70.164062 167.023438 C 70.171875 167.03125 70.171875 167.03125 70.171875 167.03125 C 67.054688 155.640625 68.777344 143.816406 75.035156 133.167969 Z M 75.035156 133.167969 " fill-opacity="1" fill-rule="nonzero"/><path fill="rgb(55.688477%, 68.629456%, 44.709778%)" d="M 98.433594 97.699219 C 98.167969 97.722656 97.914062 97.75 97.660156 97.796875 C 86.707031 99.207031 78.25 108.570312 78.25 119.925781 C 79.308594 110.105469 87.066406 100.660156 98.445312 97.699219 C 98.445312 97.699219 98.445312 97.699219 98.433594 97.699219 Z M 98.433594 97.699219 " fill-opacity="1" fill-rule="nonzero"/><g clip-path="url(#clip-11)"><path fill="rgb(22.349548%, 70.979309%, 29.019165%)" d="M 197.957031 110.378906 C 187.839844 100.164062 172.667969 88.558594 166.707031 103.085938 C 166.574219 103.421875 166.4375 103.753906 166.316406 104.097656 C 166.210938 104.453125 166.113281 104.769531 166 105.078125 C 161.472656 120.277344 179.875 122.703125 193.707031 122.5 C 201.113281 122.371094 207.21875 121.519531 207.738281 121.457031 C 207.765625 121.453125 207.777344 121.445312 207.777344 121.445312 C 207.777344 121.445312 203.65625 116.113281 197.957031 110.378906 Z M 197.957031 110.378906 " fill-opacity="1" fill-rule="nonzero"/></g><path fill="rgb(19.60907%, 64.709473%, 23.919678%)" d="M 186.839844 109.121094 C 180.582031 105.914062 173.984375 103.140625 166.863281 101.921875 L 166.546875 104.246094 C 173.335938 105.019531 179.976562 107.351562 186.328125 110.179688 C 192.699219 113.023438 198.820312 116.457031 204.796875 120.109375 C 199.03125 116.125 193.105469 112.351562 186.839844 109.121094 Z M 186.839844 109.121094 " fill-opacity="1" fill-rule="nonzero"/><g clip-path="url(#clip-12)"><path fill="rgb(19.60907%, 64.709473%, 23.919678%)" d="M 166.707031 103.085938 C 166.574219 103.421875 166.4375 103.753906 166.316406 104.097656 C 166.210938 104.453125 166.113281 104.769531 166 105.078125 C 161.472656 120.277344 179.875 122.703125 193.707031 122.5 C 201.113281 122.371094 207.21875 121.519531 207.738281 121.457031 C 207.765625 121.453125 207.777344 121.445312 207.777344 121.445312 C 184.792969 121.566406 166.21875 114.917969 166.707031 103.085938 Z M 166.707031 103.085938 " fill-opacity="1" fill-rule="nonzero"/></g><path fill="rgb(45.878601%, 29.798889%, 14.118958%)" d="M 167.847656 100.796875 C 167.679688 100.492188 167.449219 100.207031 167.15625 99.964844 L 165.625 98.699219 C 164.347656 97.640625 162.457031 97.835938 161.398438 99.117188 L 150.507812 112.304688 C 149.980469 112.945312 150.070312 113.882812 150.710938 114.410156 L 154.546875 117.585938 C 155.1875 118.113281 156.125 118.023438 156.652344 117.382812 L 167.546875 104.195312 C 168.359375 103.210938 168.445312 101.855469 167.847656 100.796875 Z M 167.847656 100.796875 " fill-opacity="1" fill-rule="nonzero"/><path fill="rgb(39.99939%, 24.708557%, 12.159729%)" d="M 167.847656 100.796875 C 163.703125 107.640625 159.066406 111.109375 152.160156 110.300781 C 152.160156 110.300781 151.332031 113.035156 152.082031 115.554688 L 154.542969 117.589844 C 155.183594 118.117188 156.121094 118.027344 156.648438 117.386719 L 167.542969 104.199219 C 168.359375 103.210938 168.445312 101.855469 167.847656 100.796875 Z M 167.847656 100.796875 " fill-opacity="1" fill-rule="nonzero"/><path fill="rgb(21.958923%, 40.779114%, 6.669617%)" d="M 159.332031 113.09375 C 159.164062 112.894531 158.984375 112.710938 158.789062 112.519531 C 158.734375 112.460938 158.679688 112.417969 158.609375 112.359375 C 158.113281 111.949219 157.566406 111.644531 156.988281 111.457031 C 156.730469 111.367188 156.484375 111.234375 156.273438 111.058594 C 156.066406 110.882812 155.886719 110.667969 155.742188 110.425781 C 155.449219 109.894531 155.050781 109.417969 154.558594 109.011719 C 154.492188 108.957031 154.425781 108.902344 154.363281 108.863281 C 154.144531 108.710938 153.929688 108.570312 153.707031 108.441406 C 144.363281 102.550781 131.882812 104.378906 124.652344 113.132812 L 123.601562 114.402344 C 120.507812 118.152344 116.277344 120.710938 111.585938 121.988281 C 104.722656 123.867188 98.382812 127.933594 93.707031 134.082031 C 83.15625 147.957031 85.082031 167.929688 98.101562 179.523438 C 98.414062 179.808594 98.734375 180.082031 99.0625 180.351562 C 113.371094 192.183594 134.5625 190.160156 146.378906 175.847656 C 150.792969 170.5 153.277344 164.191406 153.921875 157.761719 C 154.195312 154.964844 154.867188 152.238281 155.921875 149.671875 C 156.992188 147.101562 158.425781 144.691406 160.210938 142.527344 C 167.4375 133.769531 166.878906 121.160156 159.332031 113.09375 Z M 159.332031 113.09375 " fill-opacity="1" fill-rule="nonzero"/><path fill="rgb(25.878906%, 47.839355%, 7.839966%)" d="M 158.433594 114.015625 C 158.269531 113.824219 158.09375 113.644531 157.90625 113.457031 C 157.855469 113.402344 157.796875 113.355469 157.734375 113.304688 C 157.25 112.90625 156.71875 112.609375 156.160156 112.425781 C 155.910156 112.339844 155.667969 112.207031 155.46875 112.039062 C 155.265625 111.871094 155.089844 111.660156 154.949219 111.425781 C 154.664062 110.910156 154.28125 110.449219 153.800781 110.046875 C 153.730469 109.992188 153.671875 109.941406 153.609375 109.902344 C 153.394531 109.761719 153.183594 109.621094 152.96875 109.496094 C 143.890625 103.773438 131.769531 105.546875 124.746094 114.050781 L 123.726562 115.289062 C 120.71875 118.929688 116.609375 121.414062 112.054688 122.652344 C 105.390625 124.484375 99.230469 128.425781 94.683594 134.398438 C 84.4375 147.875 86.304688 167.277344 98.953125 178.542969 C 99.257812 178.820312 99.570312 179.085938 99.886719 179.347656 C 113.789062 190.839844 134.375 188.871094 145.855469 174.96875 C 150.144531 169.773438 152.5625 163.644531 153.183594 157.398438 C 153.449219 154.679688 154.101562 152.03125 155.121094 149.542969 C 156.164062 147.046875 157.554688 144.703125 159.289062 142.601562 C 166.3125 134.101562 165.765625 121.851562 158.433594 114.015625 Z M 158.433594 114.015625 " fill-opacity="1" fill-rule="nonzero"/><path fill="rgb(77.249146%, 88.238525%, 47.059631%)" d="M 157.339844 115.144531 C 157.179688 114.964844 157.011719 114.78125 156.832031 114.609375 C 156.785156 114.558594 156.722656 114.507812 156.660156 114.457031 C 156.195312 114.074219 155.6875 113.789062 155.144531 113.617188 C 154.90625 113.535156 154.675781 113.402344 154.476562 113.238281 C 154.277344 113.070312 154.109375 112.878906 153.980469 112.65625 C 153.703125 112.152344 153.328125 111.703125 152.863281 111.320312 C 152.804688 111.269531 152.746094 111.222656 152.679688 111.183594 C 152.480469 111.039062 152.273438 110.914062 152.058594 110.785156 C 143.3125 105.269531 131.613281 106.992188 124.851562 115.183594 L 123.863281 116.378906 C 122.066406 118.558594 119.855469 120.308594 117.378906 121.617188 C 115.875 122.410156 114.273438 123.035156 112.613281 123.480469 C 106.183594 125.238281 100.242188 129.039062 95.863281 134.800781 C 92.671875 138.996094 90.695312 143.792969 89.902344 148.726562 L 89.894531 148.734375 C 88.949219 154.570312 89.65625 160.617188 91.945312 166.085938 C 93.707031 170.300781 96.398438 174.175781 99.980469 177.375 C 100.273438 177.628906 100.574219 177.886719 100.882812 178.140625 C 114.285156 189.21875 134.136719 187.328125 145.207031 173.921875 C 149.339844 168.914062 151.675781 163 152.257812 156.984375 C 152.515625 154.359375 153.148438 151.804688 154.144531 149.410156 C 155.132812 147.003906 156.488281 144.742188 158.160156 142.714844 C 164.929688 134.519531 164.40625 122.703125 157.339844 115.144531 Z M 157.339844 115.144531 " fill-opacity="1" fill-rule="nonzero"/><path fill="rgb(72.158813%, 80.778503%, 40.388489%)" d="M 136.636719 152.722656 C 135.675781 148.878906 133.527344 145.300781 130.242188 142.585938 C 122.070312 135.824219 109.964844 136.980469 103.203125 145.167969 C 99.828125 149.253906 98.425781 154.328125 98.886719 159.222656 C 98.886719 159.222656 98.882812 159.246094 98.890625 159.25 C 99.367188 164.136719 101.699219 168.839844 105.773438 172.214844 C 113.957031 178.976562 126.050781 177.820312 132.808594 169.640625 C 136.855469 164.738281 138.074219 158.441406 136.636719 152.722656 Z M 136.636719 152.722656 " fill-opacity="1" fill-rule="nonzero"/><path fill="rgb(42.749023%, 26.269531%, 9.799194%)" d="M 135.285156 153.0625 C 134.394531 149.5 132.398438 146.179688 129.351562 143.664062 C 121.769531 137.398438 110.546875 138.464844 104.277344 146.058594 C 101.152344 149.84375 99.851562 154.554688 100.277344 159.09375 C 100.277344 159.09375 100.273438 159.109375 100.28125 159.117188 C 100.726562 163.652344 102.886719 168.015625 106.667969 171.140625 C 114.257812 177.410156 125.472656 176.335938 131.738281 168.75 C 135.484375 164.207031 136.613281 158.363281 135.285156 153.0625 Z M 135.285156 153.0625 " fill-opacity="1" fill-rule="nonzero"/><path fill="rgb(48.239136%, 29.798889%, 10.978699%)" d="M 135.285156 153.0625 C 134.765625 151.011719 133.882812 149.035156 132.648438 147.246094 C 131.742188 145.9375 130.644531 144.734375 129.351562 143.664062 C 121.992188 137.582031 111.210938 138.40625 104.855469 145.398438 C 104.65625 145.613281 104.460938 145.828125 104.277344 146.054688 C 101.152344 149.839844 99.851562 154.550781 100.277344 159.089844 C 100.277344 159.089844 100.273438 159.109375 100.28125 159.113281 C 101.167969 162.695312 103.160156 166.03125 106.21875 168.558594 C 113.808594 174.828125 125.023438 173.753906 131.289062 166.167969 C 134.4375 162.355469 135.734375 157.625 135.285156 153.0625 Z M 135.285156 153.0625 " fill-opacity="1" fill-rule="nonzero"/><path fill="rgb(72.158813%, 80.778503%, 40.388489%)" d="M 91.953125 166.082031 C 93.714844 170.296875 96.40625 174.171875 99.988281 177.371094 C 100.28125 177.625 100.582031 177.882812 100.890625 178.136719 C 114.292969 189.214844 134.144531 187.324219 145.214844 173.917969 C 149.347656 168.910156 151.683594 162.996094 152.265625 156.980469 C 143.351562 186.65625 105.152344 190.394531 91.953125 166.082031 Z M 91.953125 166.082031 " fill-opacity="1" fill-rule="nonzero"/><path fill="rgb(58.428955%, 43.919373%, 28.62854%)" d="M 129.355469 143.664062 C 121.996094 137.582031 111.214844 138.40625 104.859375 145.398438 C 111.421875 139.832031 123.3125 137.894531 132.652344 147.242188 C 131.742188 145.9375 130.644531 144.730469 129.355469 143.664062 Z M 129.355469 143.664062 " fill-opacity="1" fill-rule="nonzero"/><path fill="rgb(86.268616%, 92.939758%, 68.238831%)" d="M 112.617188 123.476562 C 106.1875 125.234375 100.246094 129.035156 95.867188 134.796875 C 92.675781 138.992188 90.699219 143.789062 89.90625 148.722656 C 95.691406 129.78125 109.234375 127.035156 117.382812 121.613281 C 115.878906 122.410156 114.277344 123.03125 112.617188 123.476562 Z M 112.617188 123.476562 " fill-opacity="1" fill-rule="nonzero"/><path fill="rgb(86.268616%, 92.939758%, 68.238831%)" d="M 124.859375 115.179688 C 131.441406 109.117188 142.960938 106.679688 152.066406 110.78125 C 143.3125 105.265625 131.621094 106.992188 124.859375 115.179688 Z M 124.859375 115.179688 " fill-opacity="1" fill-rule="nonzero"/></svg>